<svg id="visual" viewBox="0 0 960 100" width="960" height="100" xmlns="http://www.w3.org/2000/svg" xmlns:xlink="http://www.w3.org/1999/xlink" version="1.1"><rect x="0" y="0" width="960" height="100" fill="#001220"></rect><path d="M0 24L14.5 30.3C29 36.7 58 49.3 87.2 56.3C116.3 63.3 145.7 64.7 174.8 64.8C204 65 233 64 262 61.3C291 58.7 320 54.3 349 50.8C378 47.3 407 44.7 436.2 43.2C465.3 41.7 494.7 41.3 523.8 44.5C553 47.7 582 54.3 611 60.3C640 66.3 669 71.7 698 73.2C727 74.7 756 72.3 785.2 66.3C814.3 60.3 843.7 50.7 872.8 42.8C902 35 931 29 945.5 26L960 23L960 0L945.5 0C931 0 902 0 872.8 0C843.7 0 814.3 0 785.2 0C756 0 727 0 698 0C669 0 640 0 611 0C582 0 553 0 523.8 0C494.7 0 465.3 0 436.2 0C407 0 378 0 349 0C320 0 291 0 262 0C233 0 204 0 174.8 0C145.7 0 116.3 0 87.2 0C58 0 29 0 14.5 0L0 0Z" fill="#5856d6"></path><path d="M0 39L14.5 43C29 47 58 55 87.2 52.7C116.3 50.3 145.7 37.7 174.8 37C204 36.3 233 47.7 262 49.8C291 52 320 45 349 38.2C378 31.3 407 24.7 436.2 21.3C465.3 18 494.7 18 523.8 26C553 34 582 50 611 49.7C640 49.3 669 32.7 698 31.3C727 30 756 44 785.2 47.7C814.3 51.3 843.7 44.7 872.8 44.8C902 45 931 52 945.5 55.5L960 59L960 0L945.5 0C931 0 902 0 872.8 0C843.7 0 814.3 0 785.2 0C756 0 727 0 698 0C669 0 640 0 611 0C582 0 553 0 523.8 0C494.7 0 465.3 0 436.2 0C407 0 378 0 349 0C320 0 291 0 262 0C233 0 204 0 174.8 0C145.7 0 116.3 0 87.2 0C58 0 29 0 14.5 0L0 0Z" fill="#8748c3"></path><path d="M0 19L14.5 18.5C29 18 58 17 87.2 22.7C116.3 28.3 145.7 40.7 174.8 42.8C204 45 233 37 262 31.8C291 26.7 320 24.3 349 27.5C378 30.7 407 39.3 436.2 38.7C465.3 38 494.7 28 523.8 22.3C553 16.7 582 15.3 611 17.3C640 19.3 669 24.7 698 25C727 25.3 756 20.7 785.2 22.7C814.3 24.7 843.7 33.3 872.8 39.8C902 46.3 931 50.7 945.5 52.8L960 55L960 0L945.5 0C931 0 902 0 872.8 0C843.7 0 814.3 0 785.2 0C756 0 727 0 698 0C669 0 640 0 611 0C582 0 553 0 523.8 0C494.7 0 465.3 0 436.2 0C407 0 378 0 349 0C320 0 291 0 262 0C233 0 204 0 174.8 0C145.7 0 116.3 0 87.2 0C58 0 29 0 14.5 0L0 0Z" fill="#a339ae"></path><path d="M0 33L14.5 31.5C29 30 58 27 87.2 25.5C116.3 24 145.7 24 174.8 22.7C204 21.3 233 18.7 262 19.5C291 20.3 320 24.7 349 29.3C378 34 407 39 436.2 36.7C465.3 34.3 494.7 24.7 523.8 19.2C553 13.7 582 12.3 611 12.3C640 12.3 669 13.7 698 14.2C727 14.7 756 14.3 785.2 19.2C814.3 24 843.7 34 872.8 37.2C902 40.3 931 36.7 945.5 34.8L960 33L960 0L945.5 0C931 0 902 0 872.8 0C843.7 0 814.3 0 785.2 0C756 0 727 0 698 0C669 0 640 0 611 0C582 0 553 0 523.8 0C494.7 0 465.3 0 436.2 0C407 0 378 0 349 0C320 0 291 0 262 0C233 0 204 0 174.8 0C145.7 0 116.3 0 87.2 0C58 0 29 0 14.5 0L0 0Z" fill="#b62c96"></path><path d="M0 18L14.5 19.8C29 21.7 58 25.3 87.2 23.7C116.3 22 145.7 15 174.8 14.7C204 14.3 233 20.7 262 22.2C291 23.7 320 20.3 349 17.2C378 14 407 11 436.2 13.3C465.3 15.7 494.7 23.3 523.8 27.5C553 31.7 582 32.3 611 29.2C640 26 669 19 698 15C727 11 756 10 785.2 10.2C814.3 10.3 843.7 11.7 872.8 12.2C902 12.7 931 12.3 945.5 12.2L960 12L960 0L945.5 0C931 0 902 0 872.8 0C843.7 0 814.3 0 785.2 0C756 0 727 0 698 0C669 0 640 0 611 0C582 0 553 0 523.8 0C494.7 0 465.3 0 436.2 0C407 0 378 0 349 0C320 0 291 0 262 0C233 0 204 0 174.8 0C145.7 0 116.3 0 87.2 0C58 0 29 0 14.5 0L0 0Z" fill="#c1237f"></path><path d="M0 16L14.5 14.8C29 13.7 58 11.3 87.2 9.5C116.3 7.7 145.7 6.3 174.8 7.3C204 8.3 233 11.7 262 12.5C291 13.3 320 11.7 349 11.2C378 10.7 407 11.3 436.2 11.8C465.3 12.3 494.7 12.7 523.8 12.7C553 12.7 582 12.3 611 11.8C640 11.3 669 10.7 698 10.7C727 10.7 756 11.3 785.2 13.3C814.3 15.3 843.7 18.7 872.8 19.3C902 20 931 18 945.5 17L960 16L960 0L945.5 0C931 0 902 0 872.8 0C843.7 0 814.3 0 785.2 0C756 0 727 0 698 0C669 0 640 0 611 0C582 0 553 0 523.8 0C494.7 0 465.3 0 436.2 0C407 0 378 0 349 0C320 0 291 0 262 0C233 0 204 0 174.8 0C145.7 0 116.3 0 87.2 0C58 0 29 0 14.5 0L0 0Z" fill="#c62368"></path></svg>